<svg width="132" height="27" viewBox="0 0 132 27" fill="none" xmlns="http://www.w3.org/2000/svg">
<path d="M6.07812 26H4.95312V0.125H6.07812V26ZM3.82812 26H2.70312V0.125H3.82812V26ZM1.57812 26H0.453125V0.125H1.57812V26ZM8.32812 20.375H20.2969V21.5H8.32812V22.625H20.2969V23.75H8.32812V24.875H20.2969V26H7.20312V0.125H20.2969V1.25H8.32812V2.375H20.2969V3.5H8.32812V4.625H20.2969V5.75H8.32812V10.25H14.4688V11.375H8.32812V12.5H14.4688V13.625H8.32812V14.75H14.4688V15.875H8.32812V20.375ZM23.0312 11.375V10.25H35.4062V11.375H23.0312ZM23.0312 13.625V12.5H35.4062V13.625H23.0312ZM23.0312 15.875V14.75H35.4062V15.875H23.0312ZM47.6914 16.1562H46.5098C46.0085 16.1562 45.6471 16.0293 45.4258 15.7754C45.2044 15.515 45.0938 15.1732 45.0938 14.75C45.0938 13.8125 45.7936 13.3438 47.1934 13.3438C48.5085 13.3438 49.498 13.5391 50.1621 13.9297L49.5957 14.3594C49.14 14.151 48.3392 14.0469 47.1934 14.0469C46.6335 14.0469 46.2559 14.1087 46.0605 14.2324C45.8717 14.3561 45.7773 14.5286 45.7773 14.75C45.7773 14.9714 45.8294 15.1439 45.9336 15.2676C46.0378 15.3913 46.2298 15.4531 46.5098 15.4531H47.7207C48.5996 15.4531 49.3906 15.6029 50.0938 15.9023C50.8034 16.2018 51.3861 16.612 51.8418 17.1328C52.2975 17.6471 52.6458 18.2428 52.8867 18.9199C53.1276 19.5905 53.248 20.3099 53.248 21.0781C53.248 21.7031 53.1602 22.2956 52.9844 22.8555C52.8086 23.4154 52.5417 23.9297 52.1836 24.3984C51.832 24.8672 51.4056 25.2741 50.9043 25.6191C50.4095 25.9577 49.8171 26.2214 49.127 26.4102C48.4434 26.6055 47.7012 26.7031 46.9004 26.7031C45.6439 26.7031 44.4655 26.5111 43.3652 26.127C42.2715 25.7493 41.36 25.2188 40.6309 24.5352L41.1973 24.1152C41.8613 24.7142 42.6914 25.1797 43.6875 25.5117C44.6901 25.8372 45.7611 26 46.9004 26C47.7923 26 48.5964 25.873 49.3125 25.6191C50.0352 25.3587 50.6276 25.0039 51.0898 24.5547C51.5586 24.1055 51.9167 23.5846 52.1641 22.9922C52.418 22.3997 52.5449 21.7617 52.5449 21.0781C52.5449 20.1732 52.3626 19.3561 51.998 18.627C51.6335 17.8913 51.0768 17.2956 50.3281 16.8398C49.5859 16.3841 48.707 16.1562 47.6914 16.1562ZM46.5098 16.8594H47.623C48.9447 16.8594 49.9766 17.263 50.7188 18.0703C51.4674 18.8776 51.8418 19.8802 51.8418 21.0781C51.8418 22.2956 51.4089 23.3047 50.543 24.1055C49.6771 24.8997 48.4629 25.2969 46.9004 25.2969C45.8587 25.2969 44.8854 25.1536 43.9805 24.8672C43.0755 24.5807 42.3236 24.1771 41.7246 23.6562L42.2715 23.2168C42.8053 23.653 43.4759 23.9915 44.2832 24.2324C45.097 24.4733 45.9694 24.5938 46.9004 24.5938C48.2741 24.5938 49.3223 24.265 50.0449 23.6074C50.7741 22.9499 51.1387 22.1068 51.1387 21.0781C51.1387 20.0625 50.8327 19.2227 50.2207 18.5586C49.6152 17.8945 48.7461 17.5625 47.6133 17.5625H46.5098C45.5592 17.5625 44.8464 17.3021 44.3711 16.7812C43.8958 16.2604 43.6582 15.5833 43.6582 14.75C43.6582 13.9167 43.9512 13.2396 44.5371 12.7188C45.1296 12.1979 46.015 11.9375 47.1934 11.9375C48.0202 11.9375 48.7884 12.0352 49.498 12.2305C50.2077 12.4193 50.7936 12.6927 51.2559 13.0508L50.6992 13.4805C49.8854 12.9206 48.7168 12.6406 47.1934 12.6406C46.2103 12.6406 45.4909 12.8359 45.0352 13.2266C44.5859 13.6107 44.3613 14.1185 44.3613 14.75C44.3613 15.388 44.5273 15.8991 44.8594 16.2832C45.1979 16.6673 45.748 16.8594 46.5098 16.8594ZM46.5098 18.2656H47.584C48.5345 18.2656 49.2474 18.5293 49.7227 19.0566C50.1979 19.584 50.4355 20.2578 50.4355 21.0781C50.4355 21.9115 50.1393 22.5885 49.5469 23.1094C48.9609 23.6302 48.0788 23.8906 46.9004 23.8906C46.0736 23.8906 45.3021 23.7962 44.5859 23.6074C43.8763 23.4121 43.2904 23.1354 42.8281 22.7773L43.3848 22.3477C44.1986 22.9076 45.3704 23.1875 46.9004 23.1875C47.8835 23.1875 48.5996 22.9954 49.0488 22.6113C49.5046 22.2207 49.7324 21.7096 49.7324 21.0781C49.7324 20.4466 49.5632 19.9388 49.2246 19.5547C48.8861 19.1641 48.3359 18.9688 47.5742 18.9688H46.5098C45.1751 18.9688 44.1302 18.5716 43.375 17.7773C42.6263 16.9766 42.252 15.9674 42.252 14.75C42.252 13.5326 42.6849 12.5267 43.5508 11.7324C44.4167 10.9316 45.6309 10.5312 47.1934 10.5312C48.235 10.5312 49.2051 10.6745 50.1035 10.9609C51.0085 11.2474 51.7604 11.651 52.3594 12.1719L51.8125 12.6113C51.2786 12.1751 50.6081 11.8366 49.8008 11.5957C48.9935 11.3548 48.1243 11.2344 47.1934 11.2344C45.8197 11.2344 44.7682 11.5632 44.0391 12.2207C43.3164 12.8783 42.9551 13.7214 42.9551 14.75C42.9551 15.7721 43.2611 16.6152 43.873 17.2793C44.485 17.9368 45.3639 18.2656 46.5098 18.2656ZM46.5098 19.6719H47.584C48.0853 19.6719 48.4466 19.8021 48.668 20.0625C48.8893 20.3229 49 20.6615 49 21.0781C49 22.0156 48.3001 22.4844 46.9004 22.4844C45.5788 22.4844 44.5859 22.2891 43.9219 21.8984L44.4883 21.4688C44.944 21.6771 45.748 21.7812 46.9004 21.7812C47.4603 21.7812 47.8346 21.7194 48.0234 21.5957C48.2188 21.472 48.3164 21.2995 48.3164 21.0781C48.3164 20.8633 48.2611 20.694 48.1504 20.5703C48.0462 20.4401 47.8509 20.375 47.5645 20.375H46.5098C45.6113 20.375 44.7975 20.2285 44.0684 19.9355C43.3457 19.6426 42.75 19.2389 42.2812 18.7246C41.819 18.2103 41.4642 17.6146 41.2168 16.9375C40.9694 16.2604 40.8457 15.5312 40.8457 14.75C40.8457 14.125 40.9336 13.5326 41.1094 12.9727C41.2852 12.4128 41.5488 11.8984 41.9004 11.4297C42.2585 10.9609 42.6849 10.5573 43.1797 10.2188C43.681 9.8737 44.2734 9.60677 44.957 9.41797C45.6471 9.22266 46.3926 9.125 47.1934 9.125C48.4499 9.125 49.625 9.31706 50.7188 9.70117C51.8125 10.0788 52.724 10.6094 53.4531 11.293L52.8867 11.7129C52.2227 11.1139 51.3926 10.6517 50.3965 10.3262C49.4004 9.99414 48.3327 9.82812 47.1934 9.82812C46.3014 9.82812 45.4941 9.95833 44.7715 10.2188C44.0553 10.4727 43.4629 10.8242 42.9941 11.2734C42.5319 11.7227 42.1738 12.2435 41.9199 12.8359C41.6725 13.4284 41.5488 14.0664 41.5488 14.75C41.5488 15.668 41.7344 16.4948 42.1055 17.2305C42.4766 17.9661 43.043 18.5586 43.8047 19.0078C44.5664 19.4505 45.4681 19.6719 46.5098 19.6719ZM64.9277 16.7812L64.3613 17.2109C63.7949 16.5078 63.0658 16.1562 62.1738 16.1562C61.3991 16.1562 60.735 16.4329 60.1816 16.9863C59.6348 17.5332 59.3613 18.194 59.3613 18.9688C59.3613 19.7435 59.6348 20.4076 60.1816 20.9609C60.735 21.5078 61.3991 21.7812 62.1738 21.7812C62.61 21.7812 63.0169 21.6868 63.3945 21.498C63.7786 21.3092 64.1042 21.0488 64.3711 20.7168L64.918 21.1758C64.5924 21.5859 64.1888 21.9082 63.707 22.1426C63.2253 22.3704 62.7142 22.4844 62.1738 22.4844C61.2038 22.4844 60.3737 22.1426 59.6836 21.459C59 20.7689 58.6582 19.9388 58.6582 18.9688C58.6582 17.9987 59 17.1719 59.6836 16.4883C60.3737 15.7982 61.2038 15.4531 62.1738 15.4531C62.7207 15.4531 63.235 15.5736 63.7168 15.8145C64.1986 16.0488 64.6022 16.3711 64.9277 16.7812ZM66.0215 15.9023L65.4648 16.332C65.0742 15.8372 64.5892 15.4499 64.0098 15.1699C63.4368 14.89 62.8249 14.75 62.1738 14.75C61.0085 14.75 60.0124 15.1634 59.1855 15.9902C58.3652 16.8171 57.9551 17.8099 57.9551 18.9688C57.9551 20.1276 58.3652 21.1204 59.1855 21.9473C60.0124 22.7741 61.0085 23.1875 62.1738 23.1875C62.8249 23.1875 63.4401 23.0475 64.0195 22.7676C64.599 22.4811 65.084 22.0905 65.4746 21.5957L66.0117 22.0449C65.556 22.6178 64.9928 23.0703 64.3223 23.4023C63.6517 23.7279 62.9355 23.8906 62.1738 23.8906C61.2819 23.8906 60.4583 23.6725 59.7031 23.2363C58.9479 22.7936 58.349 22.1947 57.9062 21.4395C57.4701 20.6842 57.252 19.8607 57.252 18.9688C57.252 18.0768 57.4701 17.2533 57.9062 16.498C58.349 15.7428 58.9479 15.1471 59.7031 14.7109C60.4583 14.2682 61.2819 14.0469 62.1738 14.0469C62.9355 14.0469 63.6517 14.2129 64.3223 14.5449C64.9993 14.8704 65.5658 15.3229 66.0215 15.9023ZM67.125 15.0234L66.5781 15.4629C66.0508 14.8053 65.403 14.2878 64.6348 13.9102C63.8665 13.5326 63.0462 13.3438 62.1738 13.3438C61.4121 13.3438 60.6829 13.4935 59.9863 13.793C59.2962 14.0859 58.6973 14.4863 58.1895 14.9941C57.6882 15.4954 57.2878 16.0944 56.9883 16.791C56.6953 17.4811 56.5488 18.207 56.5488 18.9688C56.5488 19.7305 56.6953 20.4596 56.9883 21.1562C57.2878 21.8464 57.6882 22.4453 58.1895 22.9531C58.6973 23.4544 59.2962 23.8548 59.9863 24.1543C60.6829 24.4473 61.4121 24.5938 62.1738 24.5938C63.0462 24.5938 63.8665 24.4049 64.6348 24.0273C65.403 23.6497 66.0508 23.1322 66.5781 22.4746L67.1055 22.9336C66.513 23.6693 65.7871 24.2487 64.9277 24.6719C64.0684 25.0885 63.1504 25.2969 62.1738 25.2969C61.3145 25.2969 60.4941 25.1309 59.7129 24.7988C58.9316 24.4603 58.2578 24.0111 57.6914 23.4512C57.1315 22.8848 56.6823 22.2109 56.3438 21.4297C56.0117 20.6484 55.8457 19.8281 55.8457 18.9688C55.8457 18.1094 56.0117 17.2891 56.3438 16.5078C56.6823 15.7266 57.1315 15.056 57.6914 14.4961C58.2578 13.9297 58.9316 13.4805 59.7129 13.1484C60.4941 12.8099 61.3145 12.6406 62.1738 12.6406C63.1569 12.6406 64.0781 12.8522 64.9375 13.2754C65.8034 13.6986 66.5326 14.2812 67.125 15.0234ZM68.2188 14.1445L67.6523 14.5645C66.9948 13.7507 66.1875 13.1094 65.2305 12.6406C64.2799 12.1719 63.2611 11.9375 62.1738 11.9375C61.2233 11.9375 60.3118 12.123 59.4395 12.4941C58.5736 12.8652 57.8249 13.3665 57.1934 13.998C56.5684 14.623 56.0703 15.3717 55.6992 16.2441C55.3281 17.11 55.1426 18.0182 55.1426 18.9688C55.1426 19.9193 55.3281 20.8307 55.6992 21.7031C56.0703 22.569 56.5684 23.3177 57.1934 23.9492C57.8249 24.5742 58.5736 25.0723 59.4395 25.4434C60.3118 25.8145 61.2233 26 62.1738 26C63.2611 26 64.2799 25.7656 65.2305 25.2969C66.1875 24.8281 66.9948 24.1868 67.6523 23.373L68.209 23.8027C67.4863 24.7012 66.5977 25.4108 65.543 25.9316C64.4948 26.446 63.3717 26.7031 62.1738 26.7031C61.1257 26.7031 60.123 26.498 59.166 26.0879C58.2155 25.6777 57.3952 25.1276 56.7051 24.4375C56.015 23.7474 55.4648 22.9271 55.0547 21.9766C54.6445 21.0195 54.4395 20.0169 54.4395 18.9688C54.4395 17.9206 54.6445 16.9212 55.0547 15.9707C55.4648 15.0137 56.015 14.1901 56.7051 13.5C57.3952 12.8099 58.2155 12.2598 59.166 11.8496C60.123 11.4395 61.1257 11.2344 62.1738 11.2344C63.3717 11.2344 64.498 11.4948 65.5527 12.0156C66.6074 12.5299 67.4961 13.2396 68.2188 14.1445ZM83.6289 11.9375H84.332V26H83.6289V11.9375ZM69.5566 11.9375H70.2598V26H69.5566V11.9375ZM82.2227 11.9375H82.9258V26H82.2227V11.9375ZM80.8164 11.9375H81.5195V26H80.8164V11.9375ZM79.4102 11.9375H80.1133V26H79.4102V20.375H74.4785V26H73.7754V11.9375H74.4785V16.8594H79.4102V11.9375ZM72.3691 11.9375H73.0723V26H72.3691V11.9375ZM70.9629 11.9375H71.666V26H70.9629V11.9375ZM79.4102 19.6719V18.9688H74.4785V19.6719H79.4102ZM79.4102 18.2656V17.5625H74.4785V18.2656H79.4102ZM91.5488 16.9863C91.002 17.5332 90.7285 18.194 90.7285 18.9688C90.7285 19.7435 91.002 20.4076 91.5488 20.9609C92.1022 21.5078 92.7663 21.7812 93.541 21.7812C94.3158 21.7812 94.9766 21.5078 95.5234 20.9609C96.0768 20.4076 96.3535 19.7435 96.3535 18.9688C96.3535 18.194 96.0768 17.5332 95.5234 16.9863C94.9766 16.4329 94.3158 16.1562 93.541 16.1562C92.7663 16.1562 92.1022 16.4329 91.5488 16.9863ZM91.0508 21.459C90.3672 20.7689 90.0254 19.9388 90.0254 18.9688C90.0254 17.9987 90.3672 17.1719 91.0508 16.4883C91.7409 15.7982 92.571 15.4531 93.541 15.4531C94.5111 15.4531 95.3379 15.7982 96.0215 16.4883C96.7116 17.1719 97.0566 17.9987 97.0566 18.9688C97.0566 19.9388 96.7116 20.7689 96.0215 21.459C95.3379 22.1426 94.5111 22.4844 93.541 22.4844C92.571 22.4844 91.7409 22.1426 91.0508 21.459ZM90.5527 15.9902C89.7324 16.8171 89.3223 17.8099 89.3223 18.9688C89.3223 20.1276 89.7324 21.1204 90.5527 21.9473C91.3796 22.7741 92.3757 23.1875 93.541 23.1875C94.7064 23.1875 95.6992 22.7741 96.5195 21.9473C97.3464 21.1204 97.7598 20.1276 97.7598 18.9688C97.7598 17.8099 97.3464 16.8171 96.5195 15.9902C95.6992 15.1634 94.7064 14.75 93.541 14.75C92.3757 14.75 91.3796 15.1634 90.5527 15.9902ZM89.2734 21.4395C88.8372 20.6842 88.6191 19.8607 88.6191 18.9688C88.6191 18.0768 88.8372 17.2533 89.2734 16.498C89.7161 15.7428 90.3151 15.1471 91.0703 14.7109C91.8255 14.2682 92.6491 14.0469 93.541 14.0469C94.4329 14.0469 95.2565 14.2682 96.0117 14.7109C96.7669 15.1471 97.3626 15.7428 97.7988 16.498C98.2415 17.2533 98.4629 18.0768 98.4629 18.9688C98.4629 19.8607 98.2415 20.6842 97.7988 21.4395C97.3626 22.1947 96.7669 22.7936 96.0117 23.2363C95.2565 23.6725 94.4329 23.8906 93.541 23.8906C92.6491 23.8906 91.8255 23.6725 91.0703 23.2363C90.3151 22.7936 89.7161 22.1947 89.2734 21.4395ZM88.3555 16.791C88.0625 17.4811 87.916 18.207 87.916 18.9688C87.916 19.7305 88.0625 20.4596 88.3555 21.1562C88.6549 21.8464 89.0553 22.4453 89.5566 22.9531C90.0645 23.4544 90.6634 23.8548 91.3535 24.1543C92.0501 24.4473 92.7793 24.5938 93.541 24.5938C94.3027 24.5938 95.0286 24.4473 95.7188 24.1543C96.4154 23.8548 97.0143 23.4544 97.5156 22.9531C98.0234 22.4453 98.4238 21.8464 98.7168 21.1562C99.0163 20.4596 99.166 19.7305 99.166 18.9688C99.166 18.207 99.0163 17.4811 98.7168 16.791C98.4238 16.0944 98.0234 15.4954 97.5156 14.9941C97.0143 14.4863 96.4154 14.0859 95.7188 13.793C95.0286 13.4935 94.3027 13.3438 93.541 13.3438C92.7793 13.3438 92.0501 13.4935 91.3535 13.793C90.6634 14.0859 90.0645 14.4863 89.5566 14.9941C89.0553 15.4954 88.6549 16.0944 88.3555 16.791ZM87.7109 21.4297C87.3789 20.6484 87.2129 19.8281 87.2129 18.9688C87.2129 18.1094 87.3789 17.2891 87.7109 16.5078C88.0495 15.7266 88.4987 15.056 89.0586 14.4961C89.625 13.9297 90.2988 13.4805 91.0801 13.1484C91.8613 12.8099 92.6816 12.6406 93.541 12.6406C94.4004 12.6406 95.2207 12.8099 96.002 13.1484C96.7832 13.4805 97.4538 13.9297 98.0137 14.4961C98.5801 15.056 99.0293 15.7266 99.3613 16.5078C99.6999 17.2891 99.8691 18.1094 99.8691 18.9688C99.8691 19.8281 99.6999 20.6484 99.3613 21.4297C99.0293 22.2109 98.5801 22.8848 98.0137 23.4512C97.4538 24.0111 96.7832 24.4603 96.002 24.7988C95.2207 25.1309 94.4004 25.2969 93.541 25.2969C92.6816 25.2969 91.8613 25.1309 91.0801 24.7988C90.2988 24.4603 89.625 24.0111 89.0586 23.4512C88.4987 22.8848 88.0495 22.2109 87.7109 21.4297ZM87.0664 16.2441C86.6953 17.11 86.5098 18.0182 86.5098 18.9688C86.5098 19.9193 86.6953 20.8307 87.0664 21.7031C87.4375 22.569 87.9355 23.3177 88.5605 23.9492C89.1921 24.5742 89.9408 25.0723 90.8066 25.4434C91.679 25.8145 92.5905 26 93.541 26C94.4915 26 95.3997 25.8145 96.2656 25.4434C97.138 25.0723 97.8867 24.5742 98.5117 23.9492C99.1432 23.3177 99.6445 22.569 100.016 21.7031C100.387 20.8307 100.572 19.9193 100.572 18.9688C100.572 18.0182 100.387 17.11 100.016 16.2441C99.6445 15.3717 99.1432 14.623 98.5117 13.998C97.8867 13.3665 97.138 12.8652 96.2656 12.4941C95.3997 12.123 94.4915 11.9375 93.541 11.9375C92.5905 11.9375 91.679 12.123 90.8066 12.4941C89.9408 12.8652 89.1921 13.3665 88.5605 13.998C87.9355 14.623 87.4375 15.3717 87.0664 16.2441ZM86.4219 21.9766C86.0117 21.0195 85.8066 20.0169 85.8066 18.9688C85.8066 17.9206 86.0117 16.9212 86.4219 15.9707C86.832 15.0137 87.3822 14.1901 88.0723 13.5C88.7624 12.8099 89.5827 12.2598 90.5332 11.8496C91.4902 11.4395 92.4928 11.2344 93.541 11.2344C94.5892 11.2344 95.5885 11.4395 96.5391 11.8496C97.4961 12.2598 98.3197 12.8099 99.0098 13.5C99.6999 14.1901 100.25 15.0137 100.66 15.9707C101.07 16.9212 101.275 17.9206 101.275 18.9688C101.275 20.0169 101.07 21.0195 100.66 21.9766C100.25 22.9271 99.6999 23.7474 99.0098 24.4375C98.3197 25.1276 97.4961 25.6777 96.5391 26.0879C95.5885 26.498 94.5892 26.7031 93.541 26.7031C92.4928 26.7031 91.4902 26.498 90.5332 26.0879C89.5827 25.6777 88.7624 25.1276 88.0723 24.4375C87.3822 23.7474 86.832 22.9271 86.4219 21.9766ZM109.693 16.9863C109.146 17.5332 108.873 18.194 108.873 18.9688C108.873 19.7435 109.146 20.4076 109.693 20.9609C110.247 21.5078 110.911 21.7812 111.686 21.7812C112.46 21.7812 113.121 21.5078 113.668 20.9609C114.221 20.4076 114.498 19.7435 114.498 18.9688C114.498 18.194 114.221 17.5332 113.668 16.9863C113.121 16.4329 112.46 16.1562 111.686 16.1562C110.911 16.1562 110.247 16.4329 109.693 16.9863ZM109.195 21.459C108.512 20.7689 108.17 19.9388 108.17 18.9688C108.17 17.9987 108.512 17.1719 109.195 16.4883C109.885 15.7982 110.715 15.4531 111.686 15.4531C112.656 15.4531 113.482 15.7982 114.166 16.4883C114.856 17.1719 115.201 17.9987 115.201 18.9688C115.201 19.9388 114.856 20.7689 114.166 21.459C113.482 22.1426 112.656 22.4844 111.686 22.4844C110.715 22.4844 109.885 22.1426 109.195 21.459ZM108.697 15.9902C107.877 16.8171 107.467 17.8099 107.467 18.9688C107.467 20.1276 107.877 21.1204 108.697 21.9473C109.524 22.7741 110.52 23.1875 111.686 23.1875C112.851 23.1875 113.844 22.7741 114.664 21.9473C115.491 21.1204 115.904 20.1276 115.904 18.9688C115.904 17.8099 115.491 16.8171 114.664 15.9902C113.844 15.1634 112.851 14.75 111.686 14.75C110.52 14.75 109.524 15.1634 108.697 15.9902ZM107.418 21.4395C106.982 20.6842 106.764 19.8607 106.764 18.9688C106.764 18.0768 106.982 17.2533 107.418 16.498C107.861 15.7428 108.46 15.1471 109.215 14.7109C109.97 14.2682 110.794 14.0469 111.686 14.0469C112.577 14.0469 113.401 14.2682 114.156 14.7109C114.911 15.1471 115.507 15.7428 115.943 16.498C116.386 17.2533 116.607 18.0768 116.607 18.9688C116.607 19.8607 116.386 20.6842 115.943 21.4395C115.507 22.1947 114.911 22.7936 114.156 23.2363C113.401 23.6725 112.577 23.8906 111.686 23.8906C110.794 23.8906 109.97 23.6725 109.215 23.2363C108.46 22.7936 107.861 22.1947 107.418 21.4395ZM106.5 16.791C106.207 17.4811 106.061 18.207 106.061 18.9688C106.061 19.7305 106.207 20.4596 106.5 21.1562C106.799 21.8464 107.2 22.4453 107.701 22.9531C108.209 23.4544 108.808 23.8548 109.498 24.1543C110.195 24.4473 110.924 24.5938 111.686 24.5938C112.447 24.5938 113.173 24.4473 113.863 24.1543C114.56 23.8548 115.159 23.4544 115.66 22.9531C116.168 22.4453 116.568 21.8464 116.861 21.1562C117.161 20.4596 117.311 19.7305 117.311 18.9688C117.311 18.207 117.161 17.4811 116.861 16.791C116.568 16.0944 116.168 15.4954 115.66 14.9941C115.159 14.4863 114.56 14.0859 113.863 13.793C113.173 13.4935 112.447 13.3438 111.686 13.3438C110.924 13.3438 110.195 13.4935 109.498 13.793C108.808 14.0859 108.209 14.4863 107.701 14.9941C107.2 15.4954 106.799 16.0944 106.5 16.791ZM105.855 21.4297C105.523 20.6484 105.357 19.8281 105.357 18.9688C105.357 18.1094 105.523 17.2891 105.855 16.5078C106.194 15.7266 106.643 15.056 107.203 14.4961C107.77 13.9297 108.443 13.4805 109.225 13.1484C110.006 12.8099 110.826 12.6406 111.686 12.6406C112.545 12.6406 113.365 12.8099 114.146 13.1484C114.928 13.4805 115.598 13.9297 116.158 14.4961C116.725 15.056 117.174 15.7266 117.506 16.5078C117.844 17.2891 118.014 18.1094 118.014 18.9688C118.014 19.8281 117.844 20.6484 117.506 21.4297C117.174 22.2109 116.725 22.8848 116.158 23.4512C115.598 24.0111 114.928 24.4603 114.146 24.7988C113.365 25.1309 112.545 25.2969 111.686 25.2969C110.826 25.2969 110.006 25.1309 109.225 24.7988C108.443 24.4603 107.77 24.0111 107.203 23.4512C106.643 22.8848 106.194 22.2109 105.855 21.4297ZM105.211 16.2441C104.84 17.11 104.654 18.0182 104.654 18.9688C104.654 19.9193 104.84 20.8307 105.211 21.7031C105.582 22.569 106.08 23.3177 106.705 23.9492C107.337 24.5742 108.085 25.0723 108.951 25.4434C109.824 25.8145 110.735 26 111.686 26C112.636 26 113.544 25.8145 114.41 25.4434C115.283 25.0723 116.031 24.5742 116.656 23.9492C117.288 23.3177 117.789 22.569 118.16 21.7031C118.531 20.8307 118.717 19.9193 118.717 18.9688C118.717 18.0182 118.531 17.11 118.16 16.2441C117.789 15.3717 117.288 14.623 116.656 13.998C116.031 13.3665 115.283 12.8652 114.41 12.4941C113.544 12.123 112.636 11.9375 111.686 11.9375C110.735 11.9375 109.824 12.123 108.951 12.4941C108.085 12.8652 107.337 13.3665 106.705 13.998C106.08 14.623 105.582 15.3717 105.211 16.2441ZM104.566 21.9766C104.156 21.0195 103.951 20.0169 103.951 18.9688C103.951 17.9206 104.156 16.9212 104.566 15.9707C104.977 15.0137 105.527 14.1901 106.217 13.5C106.907 12.8099 107.727 12.2598 108.678 11.8496C109.635 11.4395 110.637 11.2344 111.686 11.2344C112.734 11.2344 113.733 11.4395 114.684 11.8496C115.641 12.2598 116.464 12.8099 117.154 13.5C117.844 14.1901 118.395 15.0137 118.805 15.9707C119.215 16.9212 119.42 17.9206 119.42 18.9688C119.42 20.0169 119.215 21.0195 118.805 21.9766C118.395 22.9271 117.844 23.7474 117.154 24.4375C116.464 25.1276 115.641 25.6777 114.684 26.0879C113.733 26.498 112.734 26.7031 111.686 26.7031C110.637 26.7031 109.635 26.498 108.678 26.0879C107.727 25.6777 106.907 25.1276 106.217 24.4375C105.527 23.7474 104.977 22.9271 104.566 21.9766ZM121.002 11.9375H121.705V26H121.002V11.9375ZM125.221 11.9375H125.924V22.4844H131.109V23.1875H125.924V23.8906H131.109V24.5938H125.924V25.2969H131.109V26H125.221V11.9375ZM123.814 11.9375H124.518V26H123.814V11.9375ZM122.408 11.9375H123.111V26H122.408V11.9375Z" fill="white"/>
</svg>
