<svg width="21" height="21" viewBox="0 0 21 21" fill="none" xmlns="http://www.w3.org/2000/svg">
<path d="M10.5 1.3125C11.9497 1.3125 13.125 2.48775 13.125 3.9375V9.1875H7.875V3.9375C7.875 2.48775 9.05025 1.3125 10.5 1.3125ZM14.4375 9.1875V3.9375C14.4375 1.76288 12.6746 0 10.5 0C8.32538 0 6.5625 1.76288 6.5625 3.9375V9.1875C5.11275 9.1875 3.9375 10.3628 3.9375 11.8125V18.375C3.9375 19.8247 5.11275 21 6.5625 21H14.4375C15.8872 21 17.0625 19.8247 17.0625 18.375V11.8125C17.0625 10.3628 15.8872 9.1875 14.4375 9.1875Z" fill="white"/>
</svg>
